<?xml version="1.0" encoding="iso-8859-1"?>
<!-- Generator: Adobe Illustrator 19.0.0, SVG Export Plug-In . SVG Version: 6.00 Build 0)  -->
<svg version="1.1" id="Layer_1" xmlns="http://www.w3.org/2000/svg" xmlns:xlink="http://www.w3.org/1999/xlink" x="0px" y="0px"
	 viewBox="0 0 512 512" style="enable-background:new 0 0 512 512;" xml:space="preserve">
<g>
	<g>
		<path d="M384.336,177.462h-53.215L408.735,43.03l-13.636-7.873l-82.16,142.306h-18.137l21.216-79.193l-15.209-4.075
			l-22.307,83.268h-14.628V0h-15.746v177.462h-14.628L211.19,94.194l-15.21,4.075l21.217,79.193h-18.136l-82.16-142.306
			l-13.636,7.873l77.614,134.433h-53.216l-81.8,79.826L256.001,512l210.135-254.711L384.336,177.462z M364.64,193.209l-42.53,52.596
			l-48.214-52.596H364.64z M255.999,196.987l48.585,53.003h-97.17L255.999,196.987z M238.102,193.209l-48.214,52.596l-42.529-52.596
			H238.102z M130.181,197.008l42.841,52.982H75.888L130.181,197.008z M73.245,265.736h110.273l55.129,200.488L73.245,265.736z
			 M256,469.937l-56.151-204.201h112.302L256,469.937z M328.481,265.736h63.987V249.99h-53.491l42.841-52.983l62.953,61.434
			l-171.42,207.783L328.481,265.736z"/>
	</g>
</g>
<g>
	<g>
		<rect x="408.221" y="249.991" width="5.746" height="5.746"/>
	</g>
</g>
<g>
</g>
<g>
</g>
<g>
</g>
<g>
</g>
<g>
</g>
<g>
</g>
<g>
</g>
<g>
</g>
<g>
</g>
<g>
</g>
<g>
</g>
<g>
</g>
<g>
</g>
<g>
</g>
<g>
</g>
</svg>
